<svg xmlns="http://www.w3.org/2000/svg" version="1.1" xmlns:xlink="http://www.w3.org/1999/xlink" xmlns:svgjs="http://svgjs.dev/svgjs" width="1000" height="318" viewBox="0 0 1000 318"><g transform="matrix(1,0,0,1,-0.6060354683049809,0.05171272109799929)"><svg viewBox="0 0 396 126" data-background-color="#046380" preserveAspectRatio="xMidYMid meet" height="318" width="1000" xmlns="http://www.w3.org/2000/svg" xmlns:xlink="http://www.w3.org/1999/xlink"><g id="tight-bounds" transform="matrix(1,0,0,1,0.2399974284135169,-0.020489946095437972)"><svg viewBox="0 0 395.52 126.04097989219088" height="126.04097989219088" width="395.52"><g><svg viewBox="0 0 550.5288245344875 175.43788557651402" height="126.04097989219088" width="395.52"><g><rect width="3.6320965076765748" height="175.43788557651402" x="141.86862198577288" y="0" fill="#ffffff" opacity="1" stroke-width="0" stroke="transparent" fill-opacity="1" class="rect-o-0" data-fill-palette-color="primary" rx="1%" id="o-0" data-palette-color="#ffffff"></rect></g><g transform="matrix(1,0,0,1,155.00882453448762,0.4364126506878421)"><svg viewBox="0 0 395.52 174.56506027513834" height="174.56506027513834" width="395.52"><g id="textblocktransform"><svg viewBox="0 0 395.52 174.56506027513834" height="174.56506027513834" width="395.52" id="textblock"><g><svg viewBox="0 0 395.52 174.56506027513834" height="174.56506027513834" width="395.52"><g transform="matrix(1,0,0,1,0,0)"><svg width="395.52" viewBox="0.09999656677246094 -35.099998474121094 354.79998779296875 152.5" height="174.56506027513834" data-palette-color="#ffffff"><svg></svg><svg></svg><svg></svg><svg></svg><g class="wordmark-text-0" data-fill-palette-color="primary" id="text-0"><path xmlns="http://www.w3.org/2000/svg" d="M23.05-34.5h9.65l-8.85 31.95c-0.2 0.767-0.59 1.383-1.17 1.85-0.587 0.467-1.28 0.7-2.08 0.7v0h-8.35c-0.833 0-1.54-0.233-2.12-0.7-0.587-0.467-0.963-1.083-1.13-1.85v0l-8.9-31.95h9.65l5.3 23.55c0.133 0.633 0.267 1.283 0.4 1.95 0.133 0.667 0.25 1.317 0.35 1.95v0h1.2c0.1-0.633 0.217-1.283 0.35-1.95 0.133-0.667 0.267-1.317 0.4-1.95v0zM43.3-34.65v0c1.933 0 3.91 0 5.93 0 2.013 0 3.997 0.043 5.95 0.13 1.947 0.08 3.737 0.22 5.37 0.42v0l-0.45 6.7h-12.9c-0.733 0-1.3 0.19-1.7 0.57-0.4 0.387-0.6 0.913-0.6 1.58v0 16c0 0.667 0.2 1.19 0.6 1.57 0.4 0.387 0.967 0.58 1.7 0.58v0h12.9l0.45 6.7c-1.633 0.167-3.423 0.29-5.37 0.37-1.953 0.087-3.937 0.14-5.95 0.16-2.02 0.013-3.997 0.02-5.93 0.02v0c-2.3 0-4.167-0.683-5.6-2.05-1.433-1.367-2.15-3.15-2.15-5.35v0-20c0-2.233 0.717-4.027 2.15-5.38 1.433-1.347 3.3-2.02 5.6-2.02zM36.45-14.6v-6.35h21.85v6.35zM65.25-34.5h9.35v34.5h-9.35zM74.2-21.7h11.3v6.75h-11.3zM84.95-34.5h9.4v34.5h-9.4zM100.45-34.5h9.3v34.5h-9.3zM129.9-35.1v0c1.733 0 3.21 0.05 4.43 0.15 1.213 0.1 2.33 0.233 3.35 0.4 1.013 0.167 2.053 0.4 3.12 0.7v0l-0.7 6.9c-1.133-0.067-2.183-0.11-3.15-0.13-0.967-0.013-2-0.03-3.1-0.05-1.1-0.013-2.417-0.02-3.95-0.02v0c-1.367 0-2.44 0.283-3.22 0.85-0.787 0.567-1.33 1.567-1.63 3-0.3 1.433-0.45 3.45-0.45 6.05v0c0 2.6 0.15 4.617 0.45 6.05 0.3 1.433 0.843 2.433 1.63 3 0.78 0.567 1.853 0.85 3.22 0.85v0c2.433 0 4.46-0.033 6.08-0.1 1.613-0.067 3.237-0.183 4.87-0.35v0l0.7 6.85c-1.667 0.567-3.373 0.967-5.12 1.2-1.753 0.233-3.93 0.35-6.53 0.35v0c-3.7 0-6.657-0.577-8.87-1.73-2.22-1.147-3.82-3.02-4.8-5.62-0.987-2.6-1.48-6.1-1.48-10.5v0c0-4.4 0.493-7.9 1.48-10.5 0.98-2.6 2.58-4.477 4.8-5.63 2.213-1.147 5.17-1.72 8.87-1.72zM145.55-34.5h9.35v24.85c0 0.667 0.217 1.19 0.65 1.57 0.433 0.387 1.017 0.58 1.75 0.58v0h11.8l0.45 7.05c-2.5 0.3-5.133 0.477-7.9 0.53-2.767 0.047-5.5 0.07-8.2 0.07v0c-2.5 0-4.44-0.7-5.82-2.1-1.387-1.4-2.08-3.217-2.08-5.45v0zM180.5-34.65v0c1.933 0 3.91 0 5.93 0 2.013 0 3.997 0.043 5.95 0.13 1.947 0.08 3.737 0.22 5.37 0.42v0l-0.45 6.7h-12.9c-0.733 0-1.3 0.19-1.7 0.57-0.4 0.387-0.6 0.913-0.6 1.58v0 16c0 0.667 0.2 1.19 0.6 1.57 0.4 0.387 0.967 0.58 1.7 0.58v0h12.9l0.45 6.7c-1.633 0.167-3.423 0.29-5.37 0.37-1.953 0.087-3.937 0.14-5.95 0.16-2.02 0.013-3.997 0.02-5.93 0.02v0c-2.3 0-4.167-0.683-5.6-2.05-1.433-1.367-2.15-3.15-2.15-5.35v0-20c0-2.233 0.717-4.027 2.15-5.38 1.433-1.347 3.3-2.02 5.6-2.02zM173.65-14.6v-6.35h21.85v6.35z" fill="#ffffff" fill-rule="nonzero" stroke="none" stroke-width="1" stroke-linecap="butt" stroke-linejoin="miter" stroke-miterlimit="10" stroke-dasharray="" stroke-dashoffset="0" font-family="none" font-weight="none" font-size="none" text-anchor="none" style="mix-blend-mode: normal" data-fill-palette-color="primary" opacity="1"></path><path xmlns="http://www.w3.org/2000/svg" d="M17.05 4v0c3.133 0 5.627 0.257 7.48 0.77 1.847 0.52 3.17 1.43 3.97 2.73 0.8 1.3 1.2 3.133 1.2 5.5v0c0 2.467-0.473 4.34-1.42 5.62-0.953 1.287-2.547 2.03-4.78 2.23v0 0.3c2.733 0.233 4.643 1.123 5.73 2.67 1.08 1.553 1.62 3.713 1.62 6.48v0c0 2.367-0.423 4.2-1.27 5.5-0.853 1.3-2.17 2.207-3.95 2.72-1.787 0.52-4.097 0.78-6.93 0.78v0c-2.367 0-4.44-0.007-6.22-0.02-1.787-0.02-3.42-0.063-4.9-0.13-1.487-0.067-3.013-0.15-4.58-0.25v0l0.75-6.3c0.867 0.033 2.493 0.067 4.88 0.1 2.38 0.033 5.17 0.05 8.37 0.05v0c1.2 0 2.127-0.11 2.78-0.33 0.647-0.213 1.097-0.637 1.35-1.27 0.247-0.633 0.37-1.533 0.37-2.7v0c0-1.233-0.133-2.183-0.4-2.85-0.267-0.667-0.723-1.127-1.37-1.38-0.653-0.247-1.597-0.37-2.83-0.37v0h-13.2v-5.65h13.1c1.033 0 1.833-0.1 2.4-0.3 0.567-0.2 0.967-0.583 1.2-1.15 0.233-0.567 0.35-1.383 0.35-2.45v0c0-1.033-0.117-1.827-0.35-2.38-0.233-0.547-0.65-0.913-1.25-1.1-0.6-0.18-1.45-0.27-2.55-0.27v0c-2 0-3.75-0.01-5.25-0.03-1.5-0.013-2.857-0.013-4.07 0-1.22 0.02-2.397 0.08-3.53 0.18v0l-0.75-6.3c1.433-0.133 2.817-0.223 4.15-0.27 1.333-0.053 2.8-0.09 4.4-0.11 1.6-0.013 3.433-0.02 5.5-0.02zM3 4.4h9.15v34.5h-9.15zM49.55 3.9v0c3.233 0 5.867 0.317 7.9 0.95 2.033 0.633 3.527 1.69 4.48 3.17 0.947 1.487 1.42 3.58 1.42 6.28v0c0 1.467-0.207 2.8-0.62 4-0.42 1.2-1.13 2.173-2.13 2.92-1 0.753-2.367 1.23-4.1 1.43v0 0.3c0.633 0.067 1.31 0.267 2.03 0.6 0.713 0.333 1.38 0.873 2 1.62 0.613 0.753 1.053 1.78 1.32 3.08v0l2.85 10.65h-9.85l-2.45-10.35c-0.233-1.067-0.6-1.777-1.1-2.13-0.5-0.347-1.233-0.52-2.2-0.52v0c-2.4-0.033-4.383-0.05-5.95-0.05-1.567 0-2.89-0.017-3.97-0.05-1.087-0.033-2.113-0.083-3.08-0.15v0l0.15-6.55h13.1c1.2 0 2.127-0.117 2.78-0.35 0.647-0.233 1.103-0.66 1.37-1.28 0.267-0.613 0.4-1.47 0.4-2.57v0c0-1.133-0.133-2-0.4-2.6-0.267-0.6-0.723-1.017-1.37-1.25-0.653-0.233-1.58-0.35-2.78-0.35v0c-3.3 0-6.09 0.017-8.37 0.05-2.287 0.033-3.847 0.083-4.68 0.15v0l-0.75-6.5c1.467-0.167 2.85-0.283 4.15-0.35 1.3-0.067 2.727-0.11 4.28-0.13 1.547-0.013 3.403-0.02 5.57-0.02zM35.55 4.4h9.2v34.5h-9.2zM76.2 4.25v0c1.933 0 3.91 0 5.93 0 2.013 0 3.997 0.043 5.95 0.13 1.947 0.08 3.737 0.22 5.37 0.42v0l-0.45 6.7h-12.9c-0.733 0-1.3 0.19-1.7 0.57-0.4 0.387-0.6 0.913-0.6 1.58v0 16c0 0.667 0.2 1.19 0.6 1.57 0.4 0.387 0.967 0.58 1.7 0.58v0h12.9l0.45 6.7c-1.633 0.167-3.423 0.29-5.37 0.37-1.953 0.087-3.937 0.14-5.95 0.16-2.02 0.013-3.997 0.02-5.93 0.02v0c-2.3 0-4.167-0.683-5.6-2.05-1.433-1.367-2.15-3.15-2.15-5.35v0-20c0-2.233 0.717-4.027 2.15-5.38 1.433-1.347 3.3-2.02 5.6-2.02zM69.35 24.3v-6.35h21.85v6.35zM107.5 4.4h8.65c0.767 0 1.443 0.217 2.03 0.65 0.58 0.433 0.97 1.033 1.17 1.8v0l9.45 32.05h-9.6l-6.05-23.8c-0.133-0.567-0.25-1.177-0.35-1.83-0.1-0.647-0.2-1.253-0.3-1.82v0h-1.35c-0.067 0.567-0.157 1.173-0.27 1.82-0.12 0.653-0.247 1.263-0.38 1.83v0l-6.05 23.8h-9.6l9.45-32.05c0.2-0.767 0.593-1.367 1.18-1.8 0.58-0.433 1.253-0.65 2.02-0.65zM102.75 23.95h18.15v6.75h-18.15zM150.9 4.4h10.05l-8.4 13.7c-0.4 0.667-0.85 1.243-1.35 1.73-0.5 0.48-0.983 0.853-1.45 1.12v0 0.15c0.467 0.267 1.017 0.69 1.65 1.27 0.633 0.587 1.133 1.23 1.5 1.93v0l8.6 14.6h-10.4l-9.85-18.05zM131.6 4.4h9.35v9.2c0 1.2-0.107 2.423-0.32 3.67-0.22 1.253-0.547 2.43-0.98 3.53v0c0.333 1.033 0.633 2.14 0.9 3.32 0.267 1.187 0.4 2.263 0.4 3.23v0 11.55h-9.35zM138.2 17.85h6v6.25h-6zM178.6 3.9v0c2.833 0 5.243 0.283 7.23 0.85 1.98 0.567 3.58 1.517 4.8 2.85 1.213 1.333 2.097 3.14 2.65 5.42 0.547 2.287 0.82 5.163 0.82 8.63v0c0 3.467-0.273 6.34-0.82 8.62-0.553 2.287-1.437 4.097-2.65 5.43-1.22 1.333-2.82 2.283-4.8 2.85-1.987 0.567-4.397 0.85-7.23 0.85v0c-2.767 0-5.31-0.05-7.63-0.15-2.313-0.1-4.503-0.217-6.57-0.35v0l3.85-6.75c1.2 0.1 2.683 0.173 4.45 0.22 1.767 0.053 3.733 0.08 5.9 0.08v0c1.433 0 2.56-0.3 3.38-0.9 0.813-0.6 1.387-1.683 1.72-3.25 0.333-1.567 0.5-3.783 0.5-6.65v0c0-2.867-0.167-5.083-0.5-6.65-0.333-1.567-0.907-2.65-1.72-3.25-0.82-0.6-1.947-0.9-3.38-0.9v0c-2.033 0-3.84 0-5.42 0-1.587 0-3.113 0-4.58 0v0l-4.2-6.45c2.1-0.133 4.29-0.25 6.57-0.35 2.287-0.1 4.83-0.15 7.63-0.15zM164.4 4.4h9.4v34.5h-9.4zM213.5 3.7v0c2.867 0 5.283 0.283 7.25 0.85 1.967 0.567 3.567 1.523 4.8 2.87 1.233 1.353 2.117 3.18 2.65 5.48 0.533 2.3 0.8 5.217 0.8 8.75v0c0 3.5-0.267 6.407-0.8 8.72-0.533 2.32-1.417 4.153-2.65 5.5-1.233 1.353-2.833 2.313-4.8 2.88-1.967 0.567-4.383 0.85-7.25 0.85v0c-2.833 0-5.24-0.283-7.22-0.85-1.987-0.567-3.597-1.527-4.83-2.88-1.233-1.347-2.117-3.18-2.65-5.5-0.533-2.313-0.8-5.22-0.8-8.72v0c0-3.533 0.267-6.45 0.8-8.75 0.533-2.3 1.417-4.127 2.65-5.48 1.233-1.347 2.843-2.303 4.83-2.87 1.98-0.567 4.387-0.85 7.22-0.85zM213.5 10.85v0c-1.467 0-2.607 0.3-3.42 0.9-0.82 0.6-1.397 1.683-1.73 3.25-0.333 1.567-0.5 3.783-0.5 6.65v0c0 2.867 0.167 5.083 0.5 6.65 0.333 1.567 0.91 2.65 1.73 3.25 0.813 0.6 1.953 0.9 3.42 0.9v0c1.467 0 2.61-0.3 3.43-0.9 0.813-0.6 1.38-1.683 1.7-3.25 0.313-1.567 0.47-3.783 0.47-6.65v0c0-2.867-0.157-5.083-0.47-6.65-0.32-1.567-0.887-2.65-1.7-3.25-0.82-0.6-1.963-0.9-3.43-0.9zM269.8 4.4h9.35l-4.9 31.95c-0.133 0.767-0.507 1.383-1.12 1.85-0.62 0.467-1.33 0.7-2.13 0.7v0h-8.25c-0.833 0-1.557-0.233-2.17-0.7-0.62-0.467-0.98-1.083-1.08-1.85v0l-3.05-20.6c-0.1-0.8-0.183-1.6-0.25-2.4-0.067-0.8-0.15-1.6-0.25-2.4v0h-0.9c-0.033 0.8-0.09 1.607-0.17 2.42-0.087 0.82-0.18 1.63-0.28 2.43v0l-3 20.55c-0.1 0.767-0.467 1.383-1.1 1.85-0.633 0.467-1.35 0.7-2.15 0.7v0h-8.3c-0.833 0-1.557-0.233-2.17-0.7-0.62-0.467-0.98-1.083-1.08-1.85v0l-4.95-31.95h9.35l2.6 22.45c0.067 0.8 0.127 1.65 0.18 2.55 0.047 0.9 0.087 1.85 0.12 2.85v0h0.85c0.133-0.833 0.277-1.733 0.43-2.7 0.147-0.967 0.27-1.883 0.37-2.75v0l3-19.6c0.1-0.833 0.45-1.51 1.05-2.03 0.6-0.513 1.317-0.77 2.15-0.77v0h7.1c0.833 0 1.543 0.257 2.13 0.77 0.58 0.52 0.937 1.197 1.07 2.03v0l3.05 19.7c0.1 0.867 0.217 1.767 0.35 2.7 0.133 0.933 0.267 1.817 0.4 2.65v0h0.9c0-0.867 0.043-1.767 0.13-2.7 0.08-0.933 0.137-1.8 0.17-2.6v0zM305.2 4.4h8.65v31.2c0 2.2-1.083 3.3-3.25 3.3v0h-4.2c-1 0-1.74-0.233-2.22-0.7-0.487-0.467-0.98-1.15-1.48-2.05v0l-8.45-14.7c-0.4-0.833-0.8-1.733-1.2-2.7-0.4-0.967-0.733-1.933-1-2.9v0h-0.45c0.133 0.967 0.243 1.957 0.33 2.97 0.08 1.02 0.12 1.997 0.12 2.93v0 17.15h-8.75v-31.2c0-2.2 1.1-3.3 3.3-3.3v0h4.15c1 0 1.733 0.233 2.2 0.7 0.467 0.467 0.967 1.15 1.5 2.05v0l8.1 14.15c0.467 0.8 0.917 1.683 1.35 2.65 0.433 0.967 0.85 1.983 1.25 3.05v0h0.45c-0.1-1.033-0.183-2.05-0.25-3.05-0.067-1-0.1-2-0.1-3v0z" fill="#ffffff" fill-rule="nonzero" stroke="none" stroke-width="1" stroke-linecap="butt" stroke-linejoin="miter" stroke-miterlimit="10" stroke-dasharray="" stroke-dashoffset="0" font-family="none" font-weight="none" font-size="none" text-anchor="none" style="mix-blend-mode: normal" data-fill-palette-color="primary" opacity="1"></path><path xmlns="http://www.w3.org/2000/svg" d="M31.25 43.3h8.5c2.167 0 3.283 1.1 3.35 3.3v0l1.3 31.2h-8.55l-1.1-27.4h-0.8l-4.4 19.35c-0.333 1.933-1.533 2.9-3.6 2.9v0h-5.25c-2.033 0-3.25-0.967-3.65-2.9v0l-4.4-19.35h-0.8l-0.95 27.4h-8.55l1.25-31.2c0.1-2.2 1.217-3.3 3.35-3.3v0h8.4c2 0 3.183 0.983 3.55 2.95v0l3.4 15.35c0.167 0.8 0.31 1.623 0.43 2.47 0.113 0.853 0.22 1.713 0.32 2.58v0h0.55c0.133-0.867 0.25-1.727 0.35-2.58 0.1-0.847 0.233-1.687 0.4-2.52v0l3.3-15.3c0.367-1.967 1.567-2.95 3.6-2.95zM59.15 43.3h8.65c0.767 0 1.443 0.217 2.03 0.65 0.58 0.433 0.97 1.033 1.17 1.8v0l9.45 32.05h-9.6l-6.05-23.8c-0.133-0.567-0.25-1.177-0.35-1.83-0.1-0.647-0.2-1.253-0.3-1.82v0h-1.35c-0.067 0.567-0.16 1.173-0.28 1.82-0.113 0.653-0.237 1.263-0.37 1.83v0l-6.05 23.8h-9.6l9.45-32.05c0.2-0.767 0.593-1.367 1.18-1.8 0.58-0.433 1.253-0.65 2.02-0.65zM54.4 62.85h18.15v6.75h-18.15zM105.1 43.3h8.65v31.2c0 2.2-1.083 3.3-3.25 3.3v0h-4.2c-1 0-1.74-0.233-2.22-0.7-0.487-0.467-0.98-1.15-1.48-2.05v0l-8.45-14.7c-0.4-0.833-0.8-1.733-1.2-2.7-0.4-0.967-0.733-1.933-1-2.9v0h-0.45c0.133 0.967 0.243 1.957 0.33 2.97 0.08 1.02 0.12 1.997 0.12 2.93v0 17.15h-8.75v-31.2c0-2.2 1.1-3.3 3.3-3.3v0h4.15c1 0 1.733 0.233 2.2 0.7 0.467 0.467 0.967 1.15 1.5 2.05v0l8.1 14.15c0.467 0.8 0.917 1.683 1.35 2.65 0.433 0.967 0.85 1.983 1.25 3.05v0h0.45c-0.1-1.033-0.183-2.05-0.25-3.05-0.067-1-0.1-2-0.1-3v0zM129.15 43.3h8.65c0.767 0 1.44 0.217 2.02 0.65 0.587 0.433 0.98 1.033 1.18 1.8v0l9.45 32.05h-9.6l-6.05-23.8c-0.133-0.567-0.25-1.177-0.35-1.83-0.1-0.647-0.2-1.253-0.3-1.82v0h-1.35c-0.067 0.567-0.157 1.173-0.27 1.82-0.12 0.653-0.247 1.263-0.38 1.83v0l-6.05 23.8h-9.6l9.45-32.05c0.2-0.767 0.593-1.367 1.18-1.8 0.58-0.433 1.253-0.65 2.02-0.65zM124.4 62.85h18.15v6.75h-18.15zM167.6 42.6v0c1.7 0 3.21 0.05 4.53 0.15 1.313 0.1 2.543 0.24 3.69 0.42 1.153 0.187 2.297 0.447 3.43 0.78v0l-0.7 6.8c-1.2-0.033-2.367-0.06-3.5-0.08-1.133-0.013-2.283-0.03-3.45-0.05-1.167-0.013-2.467-0.02-3.9-0.02v0c-1.167 0-2.14 0.133-2.92 0.4-0.787 0.267-1.407 0.767-1.86 1.5-0.447 0.733-0.77 1.757-0.97 3.07-0.2 1.32-0.3 2.997-0.3 5.03v0c0 2.567 0.16 4.567 0.48 6 0.313 1.433 0.837 2.433 1.57 3 0.733 0.567 1.75 0.85 3.05 0.85v0c0.867 0 1.66-0.06 2.38-0.18 0.713-0.113 1.36-0.28 1.94-0.5 0.587-0.213 1.097-0.403 1.53-0.57v0l0.95 4.1c-0.433 0.667-1.127 1.41-2.08 2.23-0.947 0.813-2.12 1.51-3.52 2.09-1.4 0.587-3.017 0.88-4.85 0.88v0c-2.6 0-4.743-0.61-6.43-1.83-1.68-1.213-2.913-3.137-3.7-5.77-0.78-2.633-1.17-6.083-1.17-10.35v0c0-4.467 0.507-8.01 1.52-10.63 1.02-2.613 2.687-4.487 5-5.62 2.32-1.133 5.413-1.7 9.28-1.7zM171.6 57.95h9v19.85h-6.9l-1.25-5.3-0.85-1.65zM193.3 43.15v0c1.933 0 3.91 0 5.93 0 2.013 0 3.997 0.043 5.95 0.13 1.947 0.08 3.737 0.22 5.37 0.42v0l-0.45 6.7h-12.9c-0.733 0-1.3 0.19-1.7 0.57-0.4 0.387-0.6 0.913-0.6 1.58v0 16c0 0.667 0.2 1.19 0.6 1.57 0.4 0.387 0.967 0.58 1.7 0.58v0h12.9l0.45 6.7c-1.633 0.167-3.423 0.29-5.37 0.37-1.953 0.087-3.937 0.14-5.95 0.16-2.02 0.013-3.997 0.02-5.93 0.02v0c-2.3 0-4.167-0.683-5.6-2.05-1.433-1.367-2.15-3.15-2.15-5.35v0-20c0-2.233 0.717-4.027 2.15-5.38 1.433-1.347 3.3-2.02 5.6-2.02zM186.45 63.2v-6.35h21.85v6.35zM243.45 43.3h8.5c2.167 0 3.283 1.1 3.35 3.3v0l1.3 31.2h-8.55l-1.1-27.4h-0.8l-4.4 19.35c-0.333 1.933-1.533 2.9-3.6 2.9v0h-5.25c-2.033 0-3.25-0.967-3.65-2.9v0l-4.4-19.35h-0.8l-0.95 27.4h-8.55l1.25-31.2c0.1-2.2 1.217-3.3 3.35-3.3v0h8.4c2 0 3.183 0.983 3.55 2.95v0l3.4 15.35c0.167 0.8 0.31 1.623 0.43 2.47 0.113 0.853 0.22 1.713 0.32 2.58v0h0.55c0.133-0.867 0.25-1.727 0.35-2.58 0.1-0.847 0.233-1.687 0.4-2.52v0l3.3-15.3c0.367-1.967 1.567-2.95 3.6-2.95zM269.45 43.15v0c1.933 0 3.91 0 5.93 0 2.013 0 3.997 0.043 5.95 0.13 1.947 0.08 3.737 0.22 5.37 0.42v0l-0.45 6.7h-12.9c-0.733 0-1.3 0.19-1.7 0.57-0.4 0.387-0.6 0.913-0.6 1.58v0 16c0 0.667 0.2 1.19 0.6 1.57 0.4 0.387 0.967 0.58 1.7 0.58v0h12.9l0.45 6.7c-1.633 0.167-3.423 0.29-5.37 0.37-1.953 0.087-3.937 0.14-5.95 0.16-2.02 0.013-3.997 0.02-5.93 0.02v0c-2.3 0-4.167-0.683-5.6-2.05-1.433-1.367-2.15-3.15-2.15-5.35v0-20c0-2.233 0.717-4.027 2.15-5.38 1.433-1.347 3.3-2.02 5.6-2.02zM262.6 63.2v-6.35h21.85v6.35zM313.25 43.3h8.65v31.2c0 2.2-1.083 3.3-3.25 3.3v0h-4.2c-1 0-1.74-0.233-2.22-0.7-0.487-0.467-0.98-1.15-1.48-2.05v0l-8.45-14.7c-0.4-0.833-0.8-1.733-1.2-2.7-0.4-0.967-0.733-1.933-1-2.9v0h-0.45c0.133 0.967 0.243 1.957 0.33 2.97 0.08 1.02 0.12 1.997 0.12 2.93v0 17.15h-8.75v-31.2c0-2.2 1.1-3.3 3.3-3.3v0h4.15c1 0 1.733 0.233 2.2 0.7 0.467 0.467 0.967 1.15 1.5 2.05v0l8.1 14.15c0.467 0.8 0.917 1.683 1.35 2.65 0.433 0.967 0.85 1.983 1.25 3.05v0h0.45c-0.1-1.033-0.183-2.05-0.25-3.05-0.067-1-0.1-2-0.1-3v0zM335.55 43.3h9.4v34.5h-9.4zM325.55 43.3h29.35v7.15h-29.35z" fill="#ffffff" fill-rule="nonzero" stroke="none" stroke-width="1" stroke-linecap="butt" stroke-linejoin="miter" stroke-miterlimit="10" stroke-dasharray="" stroke-dashoffset="0" font-family="none" font-weight="none" font-size="none" text-anchor="none" style="mix-blend-mode: normal" data-fill-palette-color="primary" opacity="1"></path><path xmlns="http://www.w3.org/2000/svg" d="M15.3 81.5v0c1.767 0.033 3.717 0.15 5.85 0.35 2.133 0.2 4.2 0.617 6.2 1.25v0l-0.6 6.1c-1.467-0.033-3.257-0.067-5.37-0.1-2.12-0.033-4.197-0.05-6.23-0.05v0c-0.767 0-1.407 0.023-1.92 0.07-0.52 0.053-0.937 0.153-1.25 0.3-0.32 0.153-0.547 0.37-0.68 0.65-0.133 0.287-0.2 0.68-0.2 1.18v0c0 0.8 0.243 1.407 0.73 1.82 0.48 0.42 1.337 0.847 2.57 1.28v0l6.45 2.4c2.8 1.1 4.76 2.457 5.88 4.07 1.113 1.62 1.67 3.713 1.67 6.28v0c0 1.933-0.233 3.567-0.7 4.9-0.467 1.333-1.223 2.383-2.27 3.15-1.053 0.767-2.437 1.333-4.15 1.7-1.72 0.367-3.847 0.55-6.38 0.55v0c-1.167 0-2.873-0.083-5.12-0.25-2.253-0.167-4.797-0.6-7.63-1.3v0l0.55-6.6c2 0.033 3.777 0.073 5.33 0.12 1.547 0.053 2.897 0.087 4.05 0.1 1.147 0.02 2.053 0.03 2.72 0.03v0c1.133 0 2-0.06 2.6-0.18 0.6-0.113 1.017-0.33 1.25-0.65 0.233-0.313 0.35-0.77 0.35-1.37v0c0-0.567-0.083-1.017-0.25-1.35-0.167-0.333-0.457-0.617-0.87-0.85-0.42-0.233-0.98-0.467-1.68-0.7v0l-6.9-2.75c-2.733-1.133-4.667-2.483-5.8-4.05-1.133-1.567-1.7-3.617-1.7-6.15v0c0-2 0.25-3.633 0.75-4.9 0.5-1.267 1.277-2.267 2.33-3 1.047-0.733 2.437-1.26 4.17-1.58 1.733-0.313 3.817-0.47 6.25-0.47zM51.95 82.2h9.7l-11.65 23.9h-8.95l-11.65-23.9h9.7l5 11.7c0.3 0.7 0.527 1.457 0.68 2.27 0.147 0.82 0.303 1.597 0.47 2.33v0h0.6c0.133-0.733 0.293-1.517 0.48-2.35 0.18-0.833 0.403-1.6 0.67-2.3v0zM40.85 100.65h9.4v16.05h-9.4zM76.2 81.5v0c1.767 0.033 3.717 0.15 5.85 0.35 2.133 0.2 4.2 0.617 6.2 1.25v0l-0.6 6.1c-1.467-0.033-3.257-0.067-5.37-0.1-2.12-0.033-4.197-0.05-6.23-0.05v0c-0.767 0-1.407 0.023-1.92 0.07-0.52 0.053-0.937 0.153-1.25 0.3-0.32 0.153-0.547 0.37-0.68 0.65-0.133 0.287-0.2 0.68-0.2 1.18v0c0 0.8 0.243 1.407 0.73 1.82 0.48 0.42 1.337 0.847 2.57 1.28v0l6.45 2.4c2.8 1.1 4.76 2.457 5.88 4.07 1.113 1.62 1.67 3.713 1.67 6.28v0c0 1.933-0.233 3.567-0.7 4.9-0.467 1.333-1.223 2.383-2.27 3.15-1.053 0.767-2.437 1.333-4.15 1.7-1.72 0.367-3.847 0.55-6.38 0.55v0c-1.167 0-2.873-0.083-5.12-0.25-2.253-0.167-4.797-0.6-7.63-1.3v0l0.55-6.6c2 0.033 3.777 0.073 5.33 0.12 1.547 0.053 2.897 0.087 4.05 0.1 1.147 0.02 2.053 0.03 2.72 0.03v0c1.133 0 2-0.06 2.6-0.18 0.6-0.113 1.017-0.33 1.25-0.65 0.233-0.313 0.35-0.77 0.35-1.37v0c0-0.567-0.083-1.017-0.25-1.35-0.167-0.333-0.457-0.617-0.87-0.85-0.42-0.233-0.98-0.467-1.68-0.7v0l-6.9-2.75c-2.733-1.133-4.667-2.483-5.8-4.05-1.133-1.567-1.7-3.617-1.7-6.15v0c0-2 0.25-3.633 0.75-4.9 0.5-1.267 1.277-2.267 2.33-3 1.047-0.733 2.437-1.26 4.17-1.58 1.733-0.313 3.817-0.47 6.25-0.47zM101.5 82.2h9.4v34.5h-9.4zM91.5 82.2h29.35v7.15h-29.35zM132 82.05v0c1.933 0 3.91 0 5.93 0 2.013 0 3.997 0.043 5.95 0.13 1.947 0.08 3.737 0.22 5.37 0.42v0l-0.45 6.7h-12.9c-0.733 0-1.3 0.19-1.7 0.57-0.4 0.387-0.6 0.913-0.6 1.58v0 16c0 0.667 0.2 1.19 0.6 1.57 0.4 0.387 0.967 0.58 1.7 0.58v0h12.9l0.45 6.7c-1.633 0.167-3.423 0.29-5.37 0.37-1.953 0.087-3.937 0.14-5.95 0.16-2.02 0.013-3.997 0.02-5.93 0.02v0c-2.3 0-4.167-0.683-5.6-2.05-1.433-1.367-2.15-3.15-2.15-5.35v0-20c0-2.233 0.717-4.027 2.15-5.38 1.433-1.347 3.3-2.02 5.6-2.02zM125.15 102.1v-6.35h21.85v6.35zM182.15 82.2h8.5c2.167 0 3.283 1.1 3.35 3.3v0l1.3 31.2h-8.55l-1.1-27.4h-0.8l-4.4 19.35c-0.333 1.933-1.533 2.9-3.6 2.9v0h-5.25c-2.033 0-3.25-0.967-3.65-2.9v0l-4.4-19.35h-0.8l-0.95 27.4h-8.55l1.25-31.2c0.1-2.2 1.217-3.3 3.35-3.3v0h8.4c2 0 3.183 0.983 3.55 2.95v0l3.4 15.35c0.167 0.8 0.31 1.623 0.43 2.47 0.113 0.853 0.22 1.713 0.32 2.58v0h0.55c0.133-0.867 0.25-1.727 0.35-2.58 0.1-0.847 0.233-1.687 0.4-2.52v0l3.3-15.3c0.367-1.967 1.567-2.95 3.6-2.95z" fill="#ffffff" fill-rule="nonzero" stroke="none" stroke-width="1" stroke-linecap="butt" stroke-linejoin="miter" stroke-miterlimit="10" stroke-dasharray="" stroke-dashoffset="0" font-family="none" font-weight="none" font-size="none" text-anchor="none" style="mix-blend-mode: normal" data-fill-palette-color="primary" opacity="1"></path></g></svg></g></svg></g></svg></g></svg></g><g transform="matrix(1,0,0,1,0,0.4364126506878421)"><svg viewBox="0 0 132.36051594473471 174.56506027513834" height="174.56506027513834" width="132.36051594473471"><g><svg xmlns="http://www.w3.org/2000/svg" xmlns:xlink="http://www.w3.org/1999/xlink" version="1.1" x="0" y="0" viewBox="15.500005722045898 1.1000003814697266 73.69998168945312 97.19999694824219" enable-background="new 0 0 100 100" xml:space="preserve" height="174.56506027513834" width="132.36051594473471" class="icon-icon-0" data-fill-palette-color="accent" id="icon-0"><path d="M71.5 64.8l-8.1 15.9c-0.2 0.3-0.4 0.5-0.8 0.6-2.8 0.6-5.1 2.3-6.5 4.7-9.7 0-20-0.1-20-0.1s0.5-4 0-9.1c-0.5-5-2.9-10.6-2.9-10.6l-6.6 3.4c0 0 1.8 6.1 1.7 10.7-0.1 4.6-2.3 11.4-2.3 11.4s19.7 1.8 25.8 1.6c0.8 0 1.8-0.1 3-0.1 0.1 0.5 0.2 1 0.4 1.5-1.1 0-2.2 0-3.3 0-13.8 0-26.4-1.1-35.8-2.8-0.4-2.7-0.6-5.7-0.6-9 0-2.2 0.6-4.4 1.7-6.5 3.4-6.4 11.7-11.5 22.2-13.8C41.7 67 46.4 70 51.9 70s10.2-3 12.4-7.3C66.9 63.2 69.3 63.9 71.5 64.8zM62 92.9v1.7c1.9-0.1 3.8-0.2 5.7-0.3v-1.8c0 0 0 0 0 0C65.8 92.6 63.9 92.7 62 92.9zM86.5 76.4c-1.4-2.7-3.7-5.2-6.7-7.3l-1 2v0c-0.6 1.6-1.9 5.4-2.4 8.7-0.7 4.2 0 12 0 12s-0.5 0.1-1.5 0.1c0 0.6-0.2 1.3-0.3 1.9 4.8-0.5 9.2-1 13.1-1.8 0.3-2.7 0.5-5.7 0.5-9.1C88.2 80.7 87.6 78.5 86.5 76.4zM56.7 93.5c0.1 0.4 0.3 0.9 0.4 1.2 0 0 0 0 0 0C56.9 94.3 56.8 93.9 56.7 93.5zM72.8 93.9C72.9 93.9 72.9 93.9 72.8 93.9c0.2-0.4 0.3-0.9 0.4-1.3C73.1 93 73 93.5 72.8 93.9zM73.3 92c0 0.2 0 0.4-0.1 0.6C73.2 92.4 73.3 92.2 73.3 92L73.3 92C73.3 91.9 73.3 92 73.3 92zM42.9 35.1c-1.3 0-2.4 1.1-2.4 2.4 0 1.3 1.1 2.4 2.4 2.4 1.3 0 2.4-1.1 2.4-2.4C45.3 36.1 44.3 35.1 42.9 35.1zM60.1 35.1c-1.3 0-2.4 1.1-2.4 2.4 0 1.3 1.1 2.4 2.4 2.4 1.3 0 2.4-1.1 2.4-2.4C62.4 36.1 61.4 35.1 60.1 35.1zM42.9 35.1c-1.3 0-2.4 1.1-2.4 2.4 0 1.3 1.1 2.4 2.4 2.4 1.3 0 2.4-1.1 2.4-2.4C45.3 36.1 44.3 35.1 42.9 35.1zM60.1 35.1c-1.3 0-2.4 1.1-2.4 2.4 0 1.3 1.1 2.4 2.4 2.4 1.3 0 2.4-1.1 2.4-2.4C62.4 36.1 61.4 35.1 60.1 35.1zM76.3 35.5c-0.4 2-1.5 3.8-3.1 5.3-0.7 0.6-1.5 1.1-2.3 1.5-2.6 11.1-10.6 18.8-19.6 18.8-8.9 0-16.9-7.6-19.6-18.6-0.9-0.4-1.8-1-2.5-1.7-1.7-1.5-2.8-3.4-3.2-5.3-0.4-2 0.1-3.9 1.3-5.3 1-1.1 2.4-1.8 4-1.9 0.2-0.9 0.4-1.7 0.6-2.6v-0.1c-0.1-3.5-0.2-8.9-0.2-12.5 0-5.7 10.2-12 20.5-12 10.2 0 18.7 9.3 18.7 11.8 0 1.7-0.1 8.4-0.2 12.7v0.1c0.2 0.9 0.5 1.7 0.6 2.6 1.5 0.2 2.9 0.8 3.8 1.9C76.2 31.6 76.7 33.5 76.3 35.5zM42.4 10.6c0 0.1 0 0.2 0 0.3 0.1 0.6 0.2 1 0.2 1.5 0.1 0.3 0.1 0.6 0.2 1 0.3 1.6 1.8 2.8 3.5 2.6 4.5-0.5 6.8-0.5 11.3 0 1.7 0.2 3.2-1 3.5-2.6 0 0 0-0.1 0-0.1 0.1-0.7 0.2-1.2 0.3-1.8 0-0.2 0.1-0.3 0.1-0.5 0.3-1.6-1.1-3.2-3-3.4-5.2-0.5-7.8-0.5-13 0C43.6 7.7 42.3 9.1 42.4 10.6zM73.8 31.3C73 30.5 71.8 30 70.5 30h-0.3l-1.8 5.5-0.6-7-3.4 3.4c0 0-4.1-6.8-12.4-6.8-8.3 0-13.4 6.7-13.4 6.7l-4-3.3-1.9 6.5L32.1 30l-0.3 0c-1.4 0-2.5 0.5-3.3 1.3-0.9 1-1.2 2.3-0.9 3.9 0.3 1.6 1.2 3.2 2.6 4.4 0.7 0.7 1.6 1.2 2.5 1.5l0.4 0.2 0.1 0.4c2.4 10.4 9.8 17.7 18.1 17.7 8.3 0 15.7-7.3 18.1-17.9l0.1-0.4 0.4-0.2c0.8-0.4 1.5-0.9 2.2-1.4 1.4-1.2 2.3-2.8 2.6-4.4C74.9 33.6 74.6 32.3 73.8 31.3zM73.3 92L73.3 92 73.3 92C73.3 91.9 73.3 92 73.3 92zM84.6 47.9v6.1c0 1.4-1.1 2.5-2.5 2.5h-4c-1.4 0-2.5-1.1-2.5-2.5v-6.1c-2.4 1.5-4 4.2-4 7.2 0 2.3 0.9 4.4 2.4 5.9 0.5 0.5 0.6 1.4 0.3 2.1l-1.2 2.3-0.9 1.8-0.8 1.6 0 0-6.4 12.5c-0.1 0.1-0.1 0.2-0.2 0.3-0.1 0.2-0.2 0.3-0.4 0.5-0.4 0.4-0.8 0.6-1.3 0.7-2 0.4-3.7 1.5-4.9 3.1-1.1 1.4-1.8 3.3-1.8 5.2 0 0.2 0 0.3 0 0.5 0 0.1 0 0.2 0 0.3 0 0.2 0.1 0.5 0.1 0.7 0 0.1 0.1 0.2 0.1 0.3 0 0.1 0 0.1 0 0.2 0 0.1 0 0.2 0.1 0.3 0.1 0.4 0.3 0.9 0.5 1.2 0.1 0.2 0.2 0.4 0.3 0.6 0.1 0.2 0.2 0.3 0.3 0.5 0.1 0.2 0.2 0.3 0.3 0.5 0 0 0 0.1 0.1 0.1 0.2 0.3 0.4 0.5 0.7 0.8 0 0 0.1 0.1 0.1 0.1 0.2 0.2 0.5 0.4 0.7 0.6 0 0 0 0 0.1 0h0c0.1 0.1 0.2 0.2 0.3 0.2 0.1 0.1 0.3 0.2 0.4 0.3v-5.9c0-1.4 1.1-2.5 2.5-2.5h4c0.2 0 0.3 0 0.5 0.1h0c0.2 0 0.3 0.1 0.4 0.1 0.1 0 0.2 0.1 0.3 0.1 0.1 0 0.1 0.1 0.2 0.1 0.1 0.1 0.3 0.2 0.4 0.3 0.1 0.1 0.2 0.2 0.3 0.3 0.1 0.1 0.1 0.2 0.2 0.3 0 0 0.1 0.1 0.1 0.1 0.1 0.1 0.1 0.3 0.2 0.4 0 0.2 0.1 0.3 0.1 0.5 0 0.1 0 0.1 0 0.2v5.9c0.4-0.3 0.8-0.5 1.2-0.9 0.2-0.2 0.4-0.3 0.5-0.5 0.2-0.2 0.3-0.3 0.5-0.5 0 0 0 0 0.1-0.1 0.1-0.2 0.3-0.4 0.4-0.5 0.1-0.2 0.2-0.3 0.3-0.5 0-0.1 0.1-0.1 0.1-0.2 0 0 0-0.1 0.1-0.1 0.1-0.2 0.2-0.3 0.2-0.5 0.1-0.2 0.2-0.5 0.3-0.7 0.2-0.4 0.3-0.9 0.4-1.3 0-0.2 0.1-0.4 0.1-0.6 0 0 0-0.1 0-0.1 0 0 0 0 0 0 0-0.1 0-0.1 0-0.2 0-0.2 0-0.4 0-0.6 0-2.2-0.8-4.2-2.2-5.7-0.5-0.6-0.7-1.5-0.3-2.2l6.9-13.6 0.7-1.5 1.9-3.7c0.3-0.5 0.8-0.9 1.4-1.1 3.9-0.8 6.9-4.2 6.9-8.3C88.6 52.1 87 49.4 84.6 47.9zM57.1 94.7c-0.2-0.4-0.3-0.8-0.5-1.2C56.8 93.9 56.9 94.3 57.1 94.7c0.1 0.2 0.2 0.4 0.3 0.6C57.3 95.1 57.2 94.9 57.1 94.7zM72.6 94.6c0.1-0.2 0.2-0.5 0.3-0.7 0.1-0.4 0.3-0.9 0.3-1.3-0.1 0.5-0.2 0.9-0.4 1.3C72.8 94.1 72.7 94.4 72.6 94.6zM73.3 92c0 0.2 0 0.4-0.1 0.6C73.2 92.4 73.3 92.2 73.3 92L73.3 92C73.3 91.9 73.3 92 73.3 92z" fill="#ffffff" data-fill-palette-color="accent"></path></svg></g></svg></g></svg></g><defs></defs></svg><rect width="395.52" height="126.04097989219088" fill="none" stroke="none" visibility="hidden"></rect></g></svg></g></svg>